<svg xmlns="http://www.w3.org/2000/svg" xml:space="preserve" style="fill-rule:evenodd;clip-rule:evenodd;stroke-linecap:round;stroke-linejoin:round;stroke-miterlimit:1.5" viewBox="0 0 512 512"><path d="m411 280 1002 4c17 352 46 688 165 882 193 3 299 211 376 491 13 39 9 71-32 86-14 59-48 86-105 75 0 117-220 109-442 99-57 92-336 5-673-128-62-24-118-280-124-434-12-329-97-721-167-1075Z" style="fill:#7d7171;stroke:#000;stroke-width:22.81px" transform="translate(-79 -60) scale(.28267)"/><path d="M1063 1371c348-28 317 102 312 546M1651 1261c118 31 117 86 273 481" style="fill:none;stroke:#000;stroke-width:22.81px" transform="translate(-79 -60) scale(.28267)"/><path d="M1044 1441c130 22 203 33 332 478" style="fill:none;stroke:#000;stroke-width:22.81px" transform="translate(45 -89) scale(.28267)"/></svg>